<svg width="27" height="24" viewBox="0 0 27 24" fill="none" xmlns="http://www.w3.org/2000/svg">
<path d="M7.85866 0H4.49066C2.01054 0 0 1.79086 0 4V7C0 9.20914 2.01054 11 4.49066 11H7.85866C10.3388 11 12.3493 9.20914 12.3493 7V4C12.3493 1.79086 10.3388 0 7.85866 0Z" fill="black"/>
<path d="M22.4533 0H19.0853C16.6051 0 14.5946 1.79086 14.5946 4V7C14.5946 9.20914 16.6051 11 19.0853 11H22.4533C24.9334 11 26.9439 9.20914 26.9439 7V4C26.9439 1.79086 24.9334 0 22.4533 0Z" fill="black"/>
<path d="M7.85866 13H4.49066C2.01054 13 0 14.7909 0 17V20C0 22.2091 2.01054 24 4.49066 24H7.85866C10.3388 24 12.3493 22.2091 12.3493 20V17C12.3493 14.7909 10.3388 13 7.85866 13Z" fill="black"/>
<path d="M22.4533 13H19.0853C16.6051 13 14.5946 14.7909 14.5946 17V20C14.5946 22.2091 16.6051 24 19.0853 24H22.4533C24.9334 24 26.9439 22.2091 26.9439 20V17C26.9439 14.7909 24.9334 13 22.4533 13Z" fill="black"/>
</svg>
