<svg width="28" height="28" viewBox="0 0 28 28" fill="none" xmlns="http://www.w3.org/2000/svg">
<path d="M22.4 22.4C20.846 22.4 19.6 23.646 19.6 25.2C19.6 25.9426 19.895 26.6548 20.4201 27.1799C20.9452 27.705 21.6574 28 22.4 28C23.1426 28 23.8548 27.705 24.3799 27.1799C24.905 26.6548 25.2 25.9426 25.2 25.2C25.2 24.4574 24.905 23.7452 24.3799 23.2201C23.8548 22.695 23.1426 22.4 22.4 22.4ZM0 0V2.8H2.8L7.84 13.426L5.936 16.856C5.726 17.248 5.6 17.71 5.6 18.2C5.6 18.9426 5.895 19.6548 6.4201 20.1799C6.9452 20.705 7.65739 21 8.4 21H25.2V18.2H8.988C8.89517 18.2 8.80615 18.1631 8.74051 18.0975C8.67487 18.0319 8.638 17.9428 8.638 17.85C8.638 17.78 8.652 17.724 8.68 17.682L9.94 15.4H20.37C21.42 15.4 22.344 14.812 22.82 13.958L27.832 4.9C27.93 4.676 28 4.438 28 4.2C28 3.8287 27.8525 3.4726 27.5899 3.21005C27.3274 2.9475 26.9713 2.8 26.6 2.8H5.894L4.578 0H0ZM8.4 22.4C6.846 22.4 5.6 23.646 5.6 25.2C5.6 25.9426 5.895 26.6548 6.4201 27.1799C6.9452 27.705 7.65739 28 8.4 28C9.14261 28 9.8548 27.705 10.3799 27.1799C10.905 26.6548 11.2 25.9426 11.2 25.2C11.2 24.4574 10.905 23.7452 10.3799 23.2201C9.8548 22.695 9.14261 22.4 8.4 22.4Z" fill="black"/>
</svg>
