<svg width="28" height="24" viewBox="0 0 28 24" fill="none" xmlns="http://www.w3.org/2000/svg">
<path d="M27.0105 10.472L17.4701 1.28502C17.0497 0.879806 16.5396 0.556458 15.9721 0.33531C15.4045 0.114163 14.7918 0 14.1723 0C13.5528 0 12.94 0.114163 12.3725 0.33531C11.805 0.556458 11.2949 0.879806 10.8745 1.28502L1.35088 10.469C0.932923 10.8438 0.698434 11.3507 0.698608 11.879V20.985C0.698608 21.7807 1.05345 22.5437 1.68507 23.1063C2.31669 23.669 3.17336 23.985 4.06661 23.985H8.55727V17.985C8.56103 17.0868 8.83718 16.2062 9.35651 15.4363C9.87585 14.6663 10.6191 14.0357 11.5076 13.611C11.5638 13.583 11.6199 13.555 11.6783 13.528C11.8879 13.435 12.1039 13.3539 12.3249 13.285C12.4765 13.236 12.6303 13.194 12.7886 13.157C12.9469 13.12 13.1377 13.087 13.3174 13.057C13.4162 13.043 13.5082 13.013 13.6093 13.004C13.7822 12.989 13.9461 12.986 14.1201 12.985C14.138 12.985 14.1538 12.98 14.1706 12.98H14.1908C14.5383 12.9824 14.8849 13.0135 15.2259 13.073C15.2641 13.08 15.3022 13.083 15.3382 13.09C15.6582 13.1523 15.9715 13.2393 16.2745 13.35C16.3171 13.365 16.3598 13.379 16.4025 13.396C16.6924 13.5081 16.971 13.6419 17.2355 13.796L17.3601 13.87C17.6168 14.029 17.8582 14.2066 18.082 14.401C18.1179 14.432 18.1516 14.463 18.1864 14.495C18.4055 14.6955 18.606 14.9116 18.7859 15.141L18.8622 15.241C19.0389 15.48 19.1925 15.7319 19.3214 15.994C19.336 16.026 19.3483 16.058 19.3629 16.094C19.4912 16.3704 19.5912 16.6566 19.6616 16.949C19.6616 16.971 19.6694 16.994 19.6739 17.016C19.7461 17.335 19.7829 17.6596 19.7839 17.985V23.985H24.2746C25.1678 23.985 26.0245 23.669 26.6561 23.1063C27.2878 22.5437 27.6426 21.7807 27.6426 20.985V11.864C27.6429 11.3445 27.4162 10.8453 27.0105 10.472Z" fill="black"/>
<path d="M14.1706 14.9851C13.2774 14.9851 12.4207 15.3012 11.7891 15.8638C11.1575 16.4264 10.8026 17.1895 10.8026 17.9851V23.9851H17.5386V17.9851C17.5386 17.1895 17.1838 16.4264 16.5521 15.8638C15.9205 15.3012 15.0639 14.9851 14.1706 14.9851Z" fill="black"/>
</svg>
