<svg width="21" height="24" viewBox="0 0 21 24" fill="none" xmlns="http://www.w3.org/2000/svg">
<path d="M10.104 12C13.8242 12 16.84 9.31371 16.84 6C16.84 2.68629 13.8242 0 10.104 0C6.38385 0 3.36804 2.68629 3.36804 6C3.36804 9.31371 6.38385 12 10.104 12Z" fill="black"/>
<path d="M10.104 14C7.42517 14.0026 4.8569 14.9517 2.96268 16.639C1.06845 18.3262 0.00297153 20.6139 0 23C0 23.2652 0.118281 23.5196 0.328822 23.7071C0.539362 23.8946 0.824917 24 1.12267 24H19.0853C19.3831 24 19.6686 23.8946 19.8792 23.7071C20.0897 23.5196 20.208 23.2652 20.208 23C20.205 20.6139 19.1396 18.3262 17.2453 16.639C15.3511 14.9517 12.7828 14.0026 10.104 14Z" fill="black"/>
</svg>
